<mxfile host="app.diagrams.net" modified="2022-12-12T13:03:43.062Z" agent="5.0 (Macintosh; Intel Mac OS X 10_15_7) AppleWebKit/537.36 (KHTML, like Gecko) Chrome/108.0.0.0 Safari/537.36" etag="YoiBwO0j5ZNwQKOlv8Yi" version="20.5.3" type="github">
  <diagram id="a3vwoXDnXf49sXZv5HpQ" name="Page-1">
    <mxGraphModel dx="1752" dy="529" grid="1" gridSize="10" guides="1" tooltips="1" connect="1" arrows="1" fold="1" page="1" pageScale="1" pageWidth="827" pageHeight="1169" math="0" shadow="0">
      <root>
        <mxCell id="0" />
        <mxCell id="1" parent="0" />
        <mxCell id="E3zmttSgDwEv-YyYdyKZ-1" value="" style="rounded=1;whiteSpace=wrap;html=1;fillColor=#dae8fc;strokeColor=#6c8ebf;" vertex="1" parent="1">
          <mxGeometry x="20" y="180" width="600" height="340" as="geometry" />
        </mxCell>
        <mxCell id="E3zmttSgDwEv-YyYdyKZ-2" value="Front end" style="text;html=1;strokeColor=none;fillColor=none;align=center;verticalAlign=middle;whiteSpace=wrap;rounded=0;fontStyle=1" vertex="1" parent="1">
          <mxGeometry x="210" y="150" width="60" height="30" as="geometry" />
        </mxCell>
        <mxCell id="E3zmttSgDwEv-YyYdyKZ-3" value="React + TypeScript" style="text;html=1;strokeColor=none;fillColor=none;align=center;verticalAlign=middle;whiteSpace=wrap;rounded=0;fontStyle=1" vertex="1" parent="1">
          <mxGeometry x="175" y="190" width="130" height="30" as="geometry" />
        </mxCell>
        <mxCell id="E3zmttSgDwEv-YyYdyKZ-13" style="rounded=0;orthogonalLoop=1;jettySize=auto;html=1;startArrow=classic;startFill=1;endArrow=classic;endFill=1;strokeWidth=2;" edge="1" parent="1" source="E3zmttSgDwEv-YyYdyKZ-4" target="E3zmttSgDwEv-YyYdyKZ-10">
          <mxGeometry relative="1" as="geometry" />
        </mxCell>
        <mxCell id="E3zmttSgDwEv-YyYdyKZ-60" style="edgeStyle=orthogonalEdgeStyle;rounded=0;jumpStyle=gap;orthogonalLoop=1;jettySize=auto;html=1;entryX=0;entryY=0.5;entryDx=0;entryDy=0;strokeWidth=2;startArrow=none;startFill=0;endArrow=classic;endFill=1;" edge="1" parent="1" source="E3zmttSgDwEv-YyYdyKZ-4" target="E3zmttSgDwEv-YyYdyKZ-59">
          <mxGeometry relative="1" as="geometry" />
        </mxCell>
        <mxCell id="E3zmttSgDwEv-YyYdyKZ-4" value="&lt;span style=&quot;font-weight: 700;&quot;&gt;Explore&lt;/span&gt;" style="rounded=1;whiteSpace=wrap;html=1;" vertex="1" parent="1">
          <mxGeometry x="40" y="290" width="95" height="40" as="geometry" />
        </mxCell>
        <mxCell id="E3zmttSgDwEv-YyYdyKZ-28" style="edgeStyle=none;rounded=0;orthogonalLoop=1;jettySize=auto;html=1;strokeWidth=2;startArrow=classic;startFill=1;endArrow=classic;endFill=1;" edge="1" parent="1" source="E3zmttSgDwEv-YyYdyKZ-6" target="E3zmttSgDwEv-YyYdyKZ-27">
          <mxGeometry relative="1" as="geometry" />
        </mxCell>
        <mxCell id="E3zmttSgDwEv-YyYdyKZ-32" style="edgeStyle=none;rounded=0;orthogonalLoop=1;jettySize=auto;html=1;strokeWidth=2;startArrow=classic;startFill=1;endArrow=classic;endFill=1;" edge="1" parent="1" source="E3zmttSgDwEv-YyYdyKZ-6" target="E3zmttSgDwEv-YyYdyKZ-31">
          <mxGeometry relative="1" as="geometry" />
        </mxCell>
        <mxCell id="E3zmttSgDwEv-YyYdyKZ-43" style="edgeStyle=none;rounded=0;jumpStyle=gap;orthogonalLoop=1;jettySize=auto;html=1;strokeWidth=2;startArrow=classic;startFill=1;endArrow=classic;endFill=1;" edge="1" parent="1" source="E3zmttSgDwEv-YyYdyKZ-7" target="E3zmttSgDwEv-YyYdyKZ-14">
          <mxGeometry relative="1" as="geometry" />
        </mxCell>
        <mxCell id="E3zmttSgDwEv-YyYdyKZ-6" value="&lt;span style=&quot;font-weight: 700;&quot;&gt;Benchmark&lt;/span&gt;" style="rounded=1;whiteSpace=wrap;html=1;" vertex="1" parent="1">
          <mxGeometry x="257.5" y="320" width="95" height="40" as="geometry" />
        </mxCell>
        <mxCell id="E3zmttSgDwEv-YyYdyKZ-7" value="&lt;span style=&quot;font-weight: 700;&quot;&gt;My worflows&lt;/span&gt;" style="rounded=1;whiteSpace=wrap;html=1;" vertex="1" parent="1">
          <mxGeometry x="420" y="360" width="95" height="40" as="geometry" />
        </mxCell>
        <mxCell id="E3zmttSgDwEv-YyYdyKZ-42" style="edgeStyle=orthogonalEdgeStyle;rounded=0;orthogonalLoop=1;jettySize=auto;html=1;entryX=1;entryY=0.5;entryDx=0;entryDy=0;strokeWidth=2;startArrow=classic;startFill=1;endArrow=classic;endFill=1;jumpStyle=gap;" edge="1" parent="1" source="E3zmttSgDwEv-YyYdyKZ-7" target="E3zmttSgDwEv-YyYdyKZ-15">
          <mxGeometry relative="1" as="geometry" />
        </mxCell>
        <mxCell id="E3zmttSgDwEv-YyYdyKZ-10" value="&lt;b&gt;REST APE&lt;/b&gt;" style="rounded=1;whiteSpace=wrap;html=1;fillColor=#ffe6cc;strokeColor=#d79b00;" vertex="1" parent="1">
          <mxGeometry x="-130" y="290" width="95" height="40" as="geometry" />
        </mxCell>
        <mxCell id="E3zmttSgDwEv-YyYdyKZ-14" value="&lt;p style=&quot;margin: 0px; font-variant-numeric: normal; font-variant-east-asian: normal; font-stretch: normal; font-size: 13px; line-height: normal; font-family: &amp;quot;Helvetica Neue&amp;quot;; text-align: start;&quot; class=&quot;p1&quot;&gt;&lt;b&gt;PostgREST&lt;/b&gt;&lt;/p&gt;" style="rounded=1;whiteSpace=wrap;html=1;fillColor=#d5e8d4;strokeColor=#82b366;" vertex="1" parent="1">
          <mxGeometry x="-120" y="185" width="95" height="40" as="geometry" />
        </mxCell>
        <mxCell id="E3zmttSgDwEv-YyYdyKZ-15" value="&lt;span style=&quot;font-weight: 700;&quot;&gt;File System&lt;/span&gt;" style="rounded=1;whiteSpace=wrap;html=1;fillColor=#e1d5e7;strokeColor=#9673a6;" vertex="1" parent="1">
          <mxGeometry x="-215" y="400" width="95" height="40" as="geometry" />
        </mxCell>
        <mxCell id="E3zmttSgDwEv-YyYdyKZ-41" style="edgeStyle=none;rounded=0;orthogonalLoop=1;jettySize=auto;html=1;strokeWidth=2;startArrow=classic;startFill=1;endArrow=classic;endFill=1;" edge="1" parent="1" source="E3zmttSgDwEv-YyYdyKZ-16" target="E3zmttSgDwEv-YyYdyKZ-40">
          <mxGeometry relative="1" as="geometry" />
        </mxCell>
        <mxCell id="E3zmttSgDwEv-YyYdyKZ-51" style="edgeStyle=none;rounded=0;jumpStyle=gap;orthogonalLoop=1;jettySize=auto;html=1;strokeWidth=2;startArrow=classic;startFill=1;endArrow=classic;endFill=1;" edge="1" parent="1" source="E3zmttSgDwEv-YyYdyKZ-16" target="E3zmttSgDwEv-YyYdyKZ-50">
          <mxGeometry relative="1" as="geometry" />
        </mxCell>
        <mxCell id="E3zmttSgDwEv-YyYdyKZ-16" value="&lt;p style=&quot;margin: 0px; font-variant-numeric: normal; font-variant-east-asian: normal; font-stretch: normal; font-size: 13px; line-height: normal; font-family: &amp;quot;Helvetica Neue&amp;quot;; text-align: start;&quot; class=&quot;p1&quot;&gt;&lt;b&gt;XENONflow&lt;/b&gt;&lt;/p&gt;" style="rounded=1;whiteSpace=wrap;html=1;fillColor=#fff2cc;strokeColor=#d6b656;" vertex="1" parent="1">
          <mxGeometry x="115" y="565" width="95" height="40" as="geometry" />
        </mxCell>
        <mxCell id="E3zmttSgDwEv-YyYdyKZ-20" style="edgeStyle=none;rounded=0;orthogonalLoop=1;jettySize=auto;html=1;strokeWidth=2;startArrow=classic;startFill=1;endArrow=classic;endFill=1;" edge="1" parent="1" source="E3zmttSgDwEv-YyYdyKZ-19" target="E3zmttSgDwEv-YyYdyKZ-14">
          <mxGeometry relative="1" as="geometry" />
        </mxCell>
        <mxCell id="E3zmttSgDwEv-YyYdyKZ-21" style="edgeStyle=none;rounded=0;orthogonalLoop=1;jettySize=auto;html=1;strokeWidth=2;startArrow=classic;startFill=1;endArrow=classic;endFill=1;jumpStyle=gap;" edge="1" parent="1" source="E3zmttSgDwEv-YyYdyKZ-19" target="E3zmttSgDwEv-YyYdyKZ-4">
          <mxGeometry relative="1" as="geometry" />
        </mxCell>
        <mxCell id="E3zmttSgDwEv-YyYdyKZ-22" style="edgeStyle=none;rounded=0;orthogonalLoop=1;jettySize=auto;html=1;strokeWidth=2;startArrow=classic;startFill=1;endArrow=classic;endFill=1;" edge="1" parent="1" source="E3zmttSgDwEv-YyYdyKZ-19" target="E3zmttSgDwEv-YyYdyKZ-6">
          <mxGeometry relative="1" as="geometry" />
        </mxCell>
        <mxCell id="E3zmttSgDwEv-YyYdyKZ-23" style="edgeStyle=none;rounded=0;orthogonalLoop=1;jettySize=auto;html=1;strokeWidth=2;startArrow=classic;startFill=1;endArrow=classic;endFill=1;" edge="1" parent="1" source="E3zmttSgDwEv-YyYdyKZ-19" target="E3zmttSgDwEv-YyYdyKZ-7">
          <mxGeometry relative="1" as="geometry" />
        </mxCell>
        <mxCell id="E3zmttSgDwEv-YyYdyKZ-19" value="&lt;span style=&quot;font-weight: 700;&quot;&gt;Chose domain&lt;/span&gt;" style="rounded=1;whiteSpace=wrap;html=1;" vertex="1" parent="1">
          <mxGeometry x="240" y="220" width="95" height="40" as="geometry" />
        </mxCell>
        <mxCell id="E3zmttSgDwEv-YyYdyKZ-33" style="edgeStyle=none;rounded=0;orthogonalLoop=1;jettySize=auto;html=1;strokeWidth=2;startArrow=classic;startFill=1;endArrow=classic;endFill=1;" edge="1" parent="1" source="E3zmttSgDwEv-YyYdyKZ-27" target="E3zmttSgDwEv-YyYdyKZ-16">
          <mxGeometry relative="1" as="geometry" />
        </mxCell>
        <mxCell id="E3zmttSgDwEv-YyYdyKZ-27" value="&lt;b&gt;CloudBench&lt;br&gt;&lt;/b&gt;" style="rounded=1;whiteSpace=wrap;html=1;" vertex="1" parent="1">
          <mxGeometry x="240" y="465" width="95" height="40" as="geometry" />
        </mxCell>
        <mxCell id="E3zmttSgDwEv-YyYdyKZ-30" style="edgeStyle=none;rounded=0;orthogonalLoop=1;jettySize=auto;html=1;strokeWidth=2;startArrow=classic;startFill=1;endArrow=classic;endFill=1;jumpStyle=gap;" edge="1" parent="1" source="E3zmttSgDwEv-YyYdyKZ-29" target="E3zmttSgDwEv-YyYdyKZ-6">
          <mxGeometry relative="1" as="geometry" />
        </mxCell>
        <mxCell id="E3zmttSgDwEv-YyYdyKZ-29" value="&lt;b&gt;LocalBench&lt;br&gt;&lt;/b&gt;" style="rounded=1;whiteSpace=wrap;html=1;" vertex="1" parent="1">
          <mxGeometry x="370" y="465" width="95" height="40" as="geometry" />
        </mxCell>
        <mxCell id="E3zmttSgDwEv-YyYdyKZ-35" style="edgeStyle=none;rounded=0;orthogonalLoop=1;jettySize=auto;html=1;strokeWidth=2;startArrow=classic;startFill=1;endArrow=classic;endFill=1;entryX=1;entryY=0.5;entryDx=0;entryDy=0;exitX=0.5;exitY=1;exitDx=0;exitDy=0;" edge="1" parent="1" source="E3zmttSgDwEv-YyYdyKZ-31" target="E3zmttSgDwEv-YyYdyKZ-34">
          <mxGeometry relative="1" as="geometry" />
        </mxCell>
        <mxCell id="E3zmttSgDwEv-YyYdyKZ-37" style="edgeStyle=none;rounded=0;orthogonalLoop=1;jettySize=auto;html=1;strokeWidth=2;startArrow=classic;startFill=1;endArrow=classic;endFill=1;entryX=1;entryY=0.5;entryDx=0;entryDy=0;exitX=0.25;exitY=1;exitDx=0;exitDy=0;" edge="1" parent="1" source="E3zmttSgDwEv-YyYdyKZ-31" target="E3zmttSgDwEv-YyYdyKZ-36">
          <mxGeometry relative="1" as="geometry" />
        </mxCell>
        <mxCell id="E3zmttSgDwEv-YyYdyKZ-31" value="&lt;b&gt;ToolBench&lt;br&gt;&lt;/b&gt;" style="rounded=1;whiteSpace=wrap;html=1;" vertex="1" parent="1">
          <mxGeometry x="125" y="465" width="95" height="40" as="geometry" />
        </mxCell>
        <mxCell id="E3zmttSgDwEv-YyYdyKZ-34" value="&lt;p style=&quot;margin: 0px; font-variant-numeric: normal; font-variant-east-asian: normal; font-stretch: normal; font-size: 13px; line-height: normal; font-family: &amp;quot;Helvetica Neue&amp;quot;; text-align: start;&quot; class=&quot;p1&quot;&gt;&lt;b&gt;OpenEBench&lt;/b&gt;&lt;/p&gt;" style="rounded=1;whiteSpace=wrap;html=1;fillColor=#d5e8d4;strokeColor=#82b366;" vertex="1" parent="1">
          <mxGeometry x="-110" y="690" width="95" height="40" as="geometry" />
        </mxCell>
        <mxCell id="E3zmttSgDwEv-YyYdyKZ-36" value="&lt;p style=&quot;margin: 0px; font-variant-numeric: normal; font-variant-east-asian: normal; font-stretch: normal; font-size: 13px; line-height: normal; font-family: &amp;quot;Helvetica Neue&amp;quot;; text-align: start;&quot; class=&quot;p1&quot;&gt;&lt;b&gt;bio.tools&lt;/b&gt;&lt;/p&gt;" style="rounded=1;whiteSpace=wrap;html=1;fillColor=#d5e8d4;strokeColor=#82b366;" vertex="1" parent="1">
          <mxGeometry x="-110" y="620" width="95" height="40" as="geometry" />
        </mxCell>
        <mxCell id="E3zmttSgDwEv-YyYdyKZ-39" style="edgeStyle=none;rounded=0;orthogonalLoop=1;jettySize=auto;html=1;strokeWidth=2;startArrow=classic;startFill=1;endArrow=classic;endFill=1;exitX=1;exitY=0.5;exitDx=0;exitDy=0;entryX=0;entryY=1;entryDx=0;entryDy=0;" edge="1" parent="1" source="E3zmttSgDwEv-YyYdyKZ-38" target="E3zmttSgDwEv-YyYdyKZ-31">
          <mxGeometry relative="1" as="geometry" />
        </mxCell>
        <mxCell id="E3zmttSgDwEv-YyYdyKZ-53" style="edgeStyle=orthogonalEdgeStyle;rounded=0;jumpStyle=gap;orthogonalLoop=1;jettySize=auto;html=1;exitX=0;exitY=0.5;exitDx=0;exitDy=0;entryX=1;entryY=0.5;entryDx=0;entryDy=0;strokeWidth=2;startArrow=none;startFill=0;endArrow=none;endFill=0;" edge="1" parent="1" source="E3zmttSgDwEv-YyYdyKZ-38" target="E3zmttSgDwEv-YyYdyKZ-46">
          <mxGeometry relative="1" as="geometry" />
        </mxCell>
        <mxCell id="E3zmttSgDwEv-YyYdyKZ-54" style="edgeStyle=orthogonalEdgeStyle;rounded=0;jumpStyle=gap;orthogonalLoop=1;jettySize=auto;html=1;strokeWidth=2;startArrow=none;startFill=0;endArrow=none;endFill=0;" edge="1" parent="1" source="E3zmttSgDwEv-YyYdyKZ-38" target="E3zmttSgDwEv-YyYdyKZ-47">
          <mxGeometry relative="1" as="geometry" />
        </mxCell>
        <mxCell id="E3zmttSgDwEv-YyYdyKZ-56" style="edgeStyle=orthogonalEdgeStyle;rounded=0;jumpStyle=gap;orthogonalLoop=1;jettySize=auto;html=1;entryX=1;entryY=0.5;entryDx=0;entryDy=0;strokeWidth=2;startArrow=none;startFill=0;endArrow=none;endFill=0;" edge="1" parent="1" source="E3zmttSgDwEv-YyYdyKZ-38" target="E3zmttSgDwEv-YyYdyKZ-48">
          <mxGeometry relative="1" as="geometry" />
        </mxCell>
        <mxCell id="E3zmttSgDwEv-YyYdyKZ-58" style="edgeStyle=orthogonalEdgeStyle;rounded=0;jumpStyle=gap;orthogonalLoop=1;jettySize=auto;html=1;entryX=1;entryY=0.5;entryDx=0;entryDy=0;strokeWidth=2;startArrow=none;startFill=0;endArrow=none;endFill=0;" edge="1" parent="1" source="E3zmttSgDwEv-YyYdyKZ-38" target="E3zmttSgDwEv-YyYdyKZ-49">
          <mxGeometry relative="1" as="geometry" />
        </mxCell>
        <mxCell id="E3zmttSgDwEv-YyYdyKZ-38" value="&lt;b&gt;Workflomics&lt;br&gt;stats&lt;br&gt;&lt;/b&gt;" style="rounded=1;whiteSpace=wrap;html=1;fillColor=#ffe6cc;strokeColor=#d79b00;" vertex="1" parent="1">
          <mxGeometry x="-110" y="549" width="95" height="40" as="geometry" />
        </mxCell>
        <mxCell id="E3zmttSgDwEv-YyYdyKZ-40" value="&lt;p style=&quot;margin: 0px; font-variant-numeric: normal; font-variant-east-asian: normal; font-stretch: normal; font-size: 13px; line-height: normal; font-family: &amp;quot;Helvetica Neue&amp;quot;; text-align: start;&quot; class=&quot;p1&quot;&gt;&lt;b&gt;DataServers&lt;/b&gt;&lt;/p&gt;" style="rounded=1;whiteSpace=wrap;html=1;fillColor=#d5e8d4;strokeColor=#82b366;" vertex="1" parent="1">
          <mxGeometry x="260" y="565" width="95" height="40" as="geometry" />
        </mxCell>
        <mxCell id="E3zmttSgDwEv-YyYdyKZ-46" value="&lt;b&gt;OS dependency&lt;br&gt;&lt;/b&gt;" style="rounded=1;whiteSpace=wrap;html=1;" vertex="1" parent="1">
          <mxGeometry x="-270" y="521.25" width="120" height="25" as="geometry" />
        </mxCell>
        <mxCell id="E3zmttSgDwEv-YyYdyKZ-47" value="&lt;b&gt;No. citations&lt;br&gt;&lt;/b&gt;" style="rounded=1;whiteSpace=wrap;html=1;" vertex="1" parent="1">
          <mxGeometry x="-270" y="556.25" width="120" height="25" as="geometry" />
        </mxCell>
        <mxCell id="E3zmttSgDwEv-YyYdyKZ-48" value="&lt;b&gt;Ann. quality&lt;br&gt;&lt;/b&gt;" style="rounded=1;whiteSpace=wrap;html=1;" vertex="1" parent="1">
          <mxGeometry x="-270" y="591.25" width="120" height="25" as="geometry" />
        </mxCell>
        <mxCell id="E3zmttSgDwEv-YyYdyKZ-49" value="&lt;b&gt;Custom stats?&lt;br&gt;&lt;/b&gt;" style="rounded=1;whiteSpace=wrap;html=1;" vertex="1" parent="1">
          <mxGeometry x="-270" y="623.75" width="120" height="25" as="geometry" />
        </mxCell>
        <mxCell id="E3zmttSgDwEv-YyYdyKZ-50" value="&lt;b&gt;&amp;nbsp; &amp;nbsp; &amp;nbsp; &amp;nbsp; &amp;nbsp;Cloud&lt;/b&gt;" style="ellipse;shape=cloud;whiteSpace=wrap;html=1;rounded=1;strokeWidth=1;" vertex="1" parent="1">
          <mxGeometry x="102.5" y="660" width="120" height="80" as="geometry" />
        </mxCell>
        <mxCell id="E3zmttSgDwEv-YyYdyKZ-52" value="" style="shape=cylinder3;whiteSpace=wrap;html=1;boundedLbl=1;backgroundOutline=1;size=5.54545454545439;rounded=1;strokeWidth=1;" vertex="1" parent="1">
          <mxGeometry x="128" y="685" width="27" height="30" as="geometry" />
        </mxCell>
        <mxCell id="E3zmttSgDwEv-YyYdyKZ-61" style="edgeStyle=orthogonalEdgeStyle;rounded=0;jumpStyle=gap;orthogonalLoop=1;jettySize=auto;html=1;strokeWidth=2;startArrow=none;startFill=0;endArrow=classic;endFill=1;" edge="1" parent="1" source="E3zmttSgDwEv-YyYdyKZ-59" target="E3zmttSgDwEv-YyYdyKZ-15">
          <mxGeometry relative="1" as="geometry" />
        </mxCell>
        <mxCell id="E3zmttSgDwEv-YyYdyKZ-59" value="&lt;span style=&quot;font-weight: 700;&quot;&gt;Workflow&lt;/span&gt;" style="rounded=1;whiteSpace=wrap;html=1;strokeWidth=1;" vertex="1" parent="1">
          <mxGeometry x="115" y="350" width="95" height="30" as="geometry" />
        </mxCell>
        <mxCell id="E3zmttSgDwEv-YyYdyKZ-63" style="edgeStyle=orthogonalEdgeStyle;rounded=0;jumpStyle=gap;orthogonalLoop=1;jettySize=auto;html=1;entryX=0.5;entryY=1;entryDx=0;entryDy=0;strokeWidth=2;startArrow=none;startFill=0;endArrow=classic;endFill=1;" edge="1" parent="1" source="E3zmttSgDwEv-YyYdyKZ-62" target="E3zmttSgDwEv-YyYdyKZ-59">
          <mxGeometry relative="1" as="geometry" />
        </mxCell>
        <mxCell id="E3zmttSgDwEv-YyYdyKZ-62" value="" style="shape=actor;whiteSpace=wrap;html=1;rounded=1;strokeWidth=1;fillColor=#dae8fc;strokeColor=#6c8ebf;" vertex="1" parent="1">
          <mxGeometry x="-80" y="430" width="50" height="50" as="geometry" />
        </mxCell>
      </root>
    </mxGraphModel>
  </diagram>
</mxfile>
